<svg xmlns="http://www.w3.org/2000/svg" version="1.1" xmlns:xlink="http://www.w3.org/1999/xlink" xmlns:svgjs="http://svgjs.dev/svgjs" width="2000" height="626" viewBox="0 0 2000 626"><g transform="matrix(1,0,0,1,-1.2121212121212466,-2.0658909707865973)"><svg viewBox="0 0 396 124" data-background-color="#444444" preserveAspectRatio="xMidYMid meet" height="626" width="2000" xmlns="http://www.w3.org/2000/svg" xmlns:xlink="http://www.w3.org/1999/xlink"><g id="tight-bounds" transform="matrix(1,0,0,1,0.2400000000000091,0.40921801977242467)"><svg viewBox="0 0 395.52 123.18156396045518" height="123.18156396045518" width="395.52"><g><svg viewBox="0 0 601.5098196805541 187.33545794352253" height="123.18156396045518" width="395.52"><g transform="matrix(1,0,0,1,0,25.89079049725963)"><svg viewBox="0 0 395.52 135.55387694900327" height="135.55387694900327" width="395.52"><g id="textblocktransform"><svg viewBox="0 0 395.52 135.55387694900327" height="135.55387694900327" width="395.52" id="textblock"><g><svg viewBox="0 0 395.52 79.0184590429846" height="79.0184590429846" width="395.52"><g transform="matrix(1,0,0,1,0,0)"><svg width="395.52" viewBox="0.55 -36.5 184.92999999999998 36.95" height="79.0184590429846" data-palette-color="#ffffff"><path d="M16.1-34.25L16.1-34.25Q20.95-34.25 24.43-34.3 27.9-34.35 30.95-34.55L30.95-34.55 30.95-33.8Q30.95-32.75 31.03-31.35 31.1-29.95 31.25-28.63 31.4-27.3 31.55-26.45L31.55-26.45 30.2-25.85Q29.55-27.95 28.83-29.23 28.1-30.5 27.03-31.13 25.95-31.75 24.33-31.95 22.7-32.15 20.3-32.15L20.3-32.15Q19.7-32.15 19.23-31.95 18.75-31.75 18.65-30.8L18.65-30.8Q18.65-30.8 18.55-29.63 18.45-28.45 18.35-25.48 18.25-22.5 18.25-17.1L18.25-17.1Q18.25-11.7 18.35-8.75 18.45-5.8 18.55-4.63 18.65-3.45 18.65-3.45L18.65-3.45Q18.75-2.5 19.7-2.13 20.65-1.75 22.9-1.3L22.9-1.3 22.75 0.15Q21.2 0.05 19.6 0.03 18 0 16.1 0L16.1 0Q12.2 0 9.05 0.15L9.05 0.15 8.9-1.3Q11.15-1.75 12.2-2.13 13.25-2.5 13.35-3.45L13.35-3.45Q13.35-3.45 13.45-4.63 13.55-5.8 13.65-8.78 13.75-11.75 13.75-17.1L13.75-17.1Q13.75-22.5 13.65-25.48 13.55-28.45 13.45-29.63 13.35-30.8 13.35-30.8L13.35-30.8Q13.25-31.75 12.8-31.95 12.35-32.15 11.8-32.15L11.8-32.15Q9.4-32.15 7.78-31.95 6.15-31.75 5.1-31.13 4.05-30.5 3.3-29.23 2.55-27.95 1.9-25.85L1.9-25.85 0.55-26.45Q0.7-27.3 0.85-28.63 1-29.95 1.07-31.35 1.15-32.75 1.15-33.8L1.15-33.8 1.15-34.55Q4.25-34.35 7.75-34.3 11.25-34.25 16.1-34.25ZM48.7-2.6L48.7-2.6 49.2-1.3Q47.3 0.45 45.05 0.45L45.05 0.45Q43.8 0.45 42.8-0.33 41.8-1.1 41.55-2.8L41.55-2.8Q39.7-1.4 37.87-0.48 36.05 0.45 33.95 0.45L33.95 0.45Q31.95 0.45 30.37-0.8 28.8-2.05 28.8-4.75L28.8-4.75Q28.8-6.55 29.95-8.28 31.1-10 33.87-11.23 36.65-12.45 41.4-12.75L41.4-12.75 41.4-17.4Q41.4-18.85 40.32-19.58 39.25-20.3 37.75-20.3L37.75-20.3Q35.55-20.3 34.5-19.25 33.45-18.2 33.45-16.65L33.45-16.65Q33.45-16.05 33.6-15.3L33.6-15.3 32.5-14.8Q31.45-15.35 30.6-16.32 29.75-17.3 29.75-17.7L29.75-17.7Q29.75-18.05 30.37-18.9 31-19.75 32.25-20.7 33.5-21.65 35.3-22.33 37.1-23 39.45-23L39.45-23Q41-23 42.27-22.55 43.55-22.1 44.3-20.95 45.05-19.8 45.05-17.65L45.05-17.65Q45.05-17.15 45.07-15.85 45.1-14.55 45.15-12.85 45.2-11.15 45.22-9.43 45.25-7.7 45.3-6.4 45.35-5.1 45.35-4.6L45.35-4.6Q45.4-3.25 45.92-2.73 46.45-2.2 47.15-2.2L47.15-2.2Q47.45-2.2 47.85-2.3 48.25-2.4 48.7-2.6ZM41.4-4.7L41.4-4.7 41.4-10.5Q37-10.4 35-8.85 33-7.3 33-5.55L33-5.55Q33-4.05 33.9-3.3 34.8-2.55 36.25-2.55L36.25-2.55Q37.35-2.55 38.67-3.08 40-3.6 41.4-4.7ZM59.35-23L59.35-23Q62.45-23 64.17-22.38 65.9-21.75 65.9-21.75L65.9-21.75Q65.9-20.65 65.95-19.25 66-17.85 66.2-16.8L66.2-16.8 64.9-16.35Q64.25-19 63.05-19.95 61.85-20.9 59.95-20.9L59.95-20.9Q58.25-20.9 57.22-19.95 56.2-19 56.2-17.7L56.2-17.7Q56.2-16.8 56.75-15.83 57.3-14.85 58.8-14L58.8-14 63.9-11.2Q65.45-10.35 66.32-9.05 67.2-7.75 67.2-5.85L67.2-5.85Q67.2-4.35 66.4-2.9 65.6-1.45 63.82-0.5 62.05 0.45 59.2 0.45L59.2 0.45Q57.7 0.45 55.77 0.15 53.85-0.15 51.7-0.8L51.7-0.8Q51.85-1.55 51.97-2.63 52.1-3.7 52.2-4.78 52.3-5.85 52.3-6.55L52.3-6.55 53.6-7Q54.05-5.25 54.5-3.98 54.95-2.7 55.92-2.05 56.9-1.4 58.9-1.4L58.9-1.4Q61.05-1.4 62.15-2.45 63.25-3.5 63.25-4.8L63.25-4.8Q63.25-5.75 62.67-6.65 62.1-7.55 60.9-8.2L60.9-8.2 55.5-11.2Q53.8-12.1 53-13.55 52.2-15 52.2-16.55L52.2-16.55Q52.2-18.15 53.02-19.63 53.85-21.1 55.45-22.05 57.05-23 59.35-23ZM94.64-1.3L94.64-1.3 94.49 0.15Q93.64 0.15 92.34 0.2 91.04 0.25 89.84 0.33 88.64 0.4 88.04 0.45L88.04 0.45 78.79-12.45 77.24-11.3Q77.34-6.4 77.49-4.45 77.64-2.5 77.64-2.4L77.64-2.4Q77.69-2.15 78.27-1.9 78.84-1.65 79.59-1.5 80.34-1.35 80.84-1.3L80.84-1.3 80.69 0.15Q79.49 0.05 78.04 0.03 76.59 0 75.29 0L75.29 0Q74.04 0 72.47 0.03 70.89 0.05 69.69 0.15L69.69 0.15 69.84-1.3Q70.39-1.35 71.09-1.5 71.79-1.65 72.37-1.9 72.94-2.15 72.99-2.4L72.99-2.4Q72.99-2.4 73.07-3.13 73.14-3.85 73.22-5.63 73.29-7.4 73.37-10.53 73.44-13.65 73.44-18.45L73.44-18.45Q73.44-23.3 73.39-26.25 73.34-29.2 73.24-30.75 73.14-32.3 73.09-32.83 73.04-33.35 73.04-33.35L73.04-33.35 69.84-34.3 69.74-35.6Q70.64-35.6 71.87-35.73 73.09-35.85 74.29-36.08 75.49-36.3 76.34-36.5L76.34-36.5 77.29-36.05Q77.29-36.05 77.24-31.4 77.19-26.75 77.19-17.6L77.19-17.6 77.19-13.6 85.19-19.6Q85.54-19.9 85.54-20.2L85.54-20.2Q85.54-20.6 84.84-20.95 84.14-21.3 82.54-21.35L82.54-21.35 82.69-22.8Q83.74-22.75 84.39-22.73 85.04-22.7 85.77-22.68 86.49-22.65 87.69-22.65L87.69-22.65Q89.54-22.65 90.62-22.7 91.69-22.75 93.24-22.8L93.24-22.8 93.39-21.35Q91.34-21.05 90.12-20.45 88.89-19.85 88.09-19.3L88.09-19.3 81.89-14.7 91.29-2.15Q91.74-1.5 92.79-1.45 93.84-1.4 94.64-1.3ZM110.74-34.25L110.74-34.25Q115.59-34.25 119.07-34.3 122.54-34.35 125.59-34.55L125.59-34.55 125.59-33.8Q125.59-32.75 125.67-31.35 125.74-29.95 125.89-28.63 126.04-27.3 126.19-26.45L126.19-26.45 124.84-25.85Q124.19-27.95 123.47-29.23 122.74-30.5 121.67-31.13 120.59-31.75 118.97-31.95 117.34-32.15 114.94-32.15L114.94-32.15Q114.34-32.15 113.87-31.95 113.39-31.75 113.29-30.8L113.29-30.8Q113.29-30.8 113.19-29.63 113.09-28.45 112.99-25.48 112.89-22.5 112.89-17.1L112.89-17.1Q112.89-11.7 112.99-8.75 113.09-5.8 113.19-4.63 113.29-3.45 113.29-3.45L113.29-3.45Q113.39-2.5 114.34-2.13 115.29-1.75 117.54-1.3L117.54-1.3 117.39 0.15Q115.84 0.05 114.24 0.03 112.64 0 110.74 0L110.74 0Q106.84 0 103.69 0.15L103.69 0.15 103.54-1.3Q105.79-1.75 106.84-2.13 107.89-2.5 107.99-3.45L107.99-3.45Q107.99-3.45 108.09-4.63 108.19-5.8 108.29-8.78 108.39-11.75 108.39-17.1L108.39-17.1Q108.39-22.5 108.29-25.48 108.19-28.45 108.09-29.63 107.99-30.8 107.99-30.8L107.99-30.8Q107.89-31.75 107.44-31.95 106.99-32.15 106.44-32.15L106.44-32.15Q104.04-32.15 102.42-31.95 100.79-31.75 99.74-31.13 98.69-30.5 97.94-29.23 97.19-27.95 96.54-25.85L96.54-25.85 95.19-26.45Q95.34-27.3 95.49-28.63 95.64-29.95 95.72-31.35 95.79-32.75 95.79-33.8L95.79-33.8 95.79-34.55Q98.89-34.35 102.39-34.3 105.89-34.25 110.74-34.25ZM130.74-22.95L130.74-22.95 131.69-22.5Q131.64-21.95 131.61-20.83 131.59-19.7 131.59-18.4L131.59-18.4Q132.69-20.25 134.16-21.3 135.64-22.35 136.91-22.83 138.19-23.3 138.69-23.3L138.69-23.3Q138.94-23.3 139.46-22.78 139.99-22.25 140.51-21.45 141.04-20.65 141.24-19.8L141.24-19.8 140.49-18.85Q139.84-19.1 138.94-19.33 138.04-19.55 137.04-19.55L137.04-19.55Q135.74-19.55 134.49-18.93 133.24-18.3 132.41-16.82 131.59-15.35 131.59-12.7L131.59-12.7Q131.59-8.6 131.66-6.48 131.74-4.35 131.86-3.55 131.99-2.75 132.04-2.45L132.04-2.45Q132.14-2.05 133.54-1.73 134.94-1.4 136.34-1.3L136.34-1.3 136.19 0.15Q135.39 0.1 134.19 0.08 132.99 0.05 131.79 0.03 130.59 0 129.74 0L129.74 0Q128.49 0 126.86 0.03 125.24 0.05 124.04 0.15L124.04 0.15 124.19-1.3Q124.74-1.35 125.46-1.5 126.19-1.65 126.79-1.9 127.39-2.15 127.44-2.4L127.44-2.4Q127.44-2.4 127.54-3.15 127.64-3.9 127.74-5.85 127.84-7.8 127.84-11.45L127.84-11.45Q127.84-15.1 127.74-16.88 127.64-18.65 127.54-19.23 127.44-19.8 127.44-19.8L127.44-19.8 124.24-20.75 124.14-22.05Q125.04-22.05 126.26-22.18 127.49-22.3 128.69-22.53 129.89-22.75 130.74-22.95ZM163.44-2.6L163.44-2.6 163.94-1.3Q162.04 0.45 159.78 0.45L159.78 0.45Q158.53 0.45 157.53-0.33 156.53-1.1 156.28-2.8L156.28-2.8Q154.44-1.4 152.61-0.48 150.78 0.45 148.69 0.45L148.69 0.45Q146.69 0.45 145.11-0.8 143.53-2.05 143.53-4.75L143.53-4.75Q143.53-6.55 144.69-8.28 145.84-10 148.61-11.23 151.39-12.45 156.14-12.75L156.14-12.75 156.14-17.4Q156.14-18.85 155.06-19.58 153.99-20.3 152.49-20.3L152.49-20.3Q150.28-20.3 149.24-19.25 148.19-18.2 148.19-16.65L148.19-16.65Q148.19-16.05 148.34-15.3L148.34-15.3 147.24-14.8Q146.19-15.35 145.34-16.32 144.49-17.3 144.49-17.7L144.49-17.7Q144.49-18.05 145.11-18.9 145.74-19.75 146.99-20.7 148.24-21.65 150.03-22.33 151.84-23 154.19-23L154.19-23Q155.74-23 157.01-22.55 158.28-22.1 159.03-20.95 159.78-19.8 159.78-17.65L159.78-17.65Q159.78-17.15 159.81-15.85 159.84-14.55 159.89-12.85 159.94-11.15 159.96-9.43 159.99-7.7 160.03-6.4 160.09-5.1 160.09-4.6L160.09-4.6Q160.14-3.25 160.66-2.73 161.19-2.2 161.89-2.2L161.89-2.2Q162.19-2.2 162.59-2.3 162.99-2.4 163.44-2.6ZM156.14-4.7L156.14-4.7 156.14-10.5Q151.74-10.4 149.74-8.85 147.74-7.3 147.74-5.55L147.74-5.55Q147.74-4.05 148.64-3.3 149.53-2.55 150.99-2.55L150.99-2.55Q152.09-2.55 153.41-3.08 154.74-3.6 156.14-4.7ZM184.88-4.5L184.88-4.5 185.48-2.85Q183.78-1.5 181.61-0.53 179.43 0.45 176.63 0.45L176.63 0.45Q173.13 0.45 170.81-1.03 168.48-2.5 167.36-5.05 166.23-7.6 166.23-10.75L166.23-10.75Q166.23-13 166.96-15.18 167.68-17.35 169.11-19.13 170.53-20.9 172.66-21.95 174.78-23 177.63-23L177.63-23Q179.78-23 181.48-22.28 183.18-21.55 184.18-20.73 185.18-19.9 185.18-19.6L185.18-19.6Q185.18-18.95 184.88-17.88 184.58-16.8 183.98-15.95L183.98-15.95 182.78-15.95Q182.48-16.8 181.78-17.8 181.08-18.8 179.93-19.55 178.78-20.3 177.08-20.3L177.08-20.3Q174.88-20.3 173.43-18.93 171.98-17.55 171.31-15.43 170.63-13.3 170.63-11.1L170.63-11.1Q170.63-6.55 172.68-4.53 174.73-2.5 177.93-2.5L177.93-2.5Q179.53-2.5 181.43-3.03 183.33-3.55 184.88-4.5Z" opacity="1" transform="matrix(1,0,0,1,0,0)" fill="#ffffff" class="wordmark-text-0" data-fill-palette-color="primary" id="text-0"></path></svg></g></svg></g><g transform="matrix(1,0,0,1,19.77600000000001,97.67282078001624)"><svg viewBox="0 0 375.74399999999997 37.88105616898704" height="37.88105616898704" width="375.74399999999997"><g transform="matrix(1,0,0,1,0,0)"><svg width="375.74399999999997" viewBox="1.71 -31.74 406.79 41.019999999999996" height="37.88105616898704" data-palette-color="#00d1cd"><path d="M7.18 0L20.61 0Q20.61-1.07 19.82-1.22L19.82-1.22Q19.58-1.27 19.34-1.27L19.34-1.27 16.02-1.27 16.02-28.03 18.85-28.03Q22.8-28.03 24.12-23.24L24.12-23.24Q24.12-23.05 24.17-22.95L24.17-22.95 24.95-19.68 26.32-19.68 26.07-29.3 1.95-29.3 1.71-19.68 3.08-19.68 3.86-22.95Q5.42-27.73 9.18-28.03L9.18-28.03 11.82-28.03 11.82-1.27 7.18-1.27 7.18 0ZM40.43-1.22L40.43-1.22 36.91-1.22 36.91-10.94Q36.91-15.38 39.65-18.07L39.65-18.07Q40.72-19.09 41.45-19.14L41.45-19.14Q42.28-19.14 42.97-17.92L42.97-17.92Q43.75-16.55 44.43-16.36L44.43-16.36Q44.72-16.26 45.02-16.26L45.02-16.26Q46.48-16.26 46.87-17.68L46.87-17.68Q46.97-17.97 46.97-18.26L46.97-18.26Q46.97-20.46 44.72-20.95L44.72-20.95Q44.24-21.04 43.8-21.04L43.8-21.04Q40.87-21.04 38.57-18.55L38.57-18.55Q37.5-17.38 36.86-15.92L36.86-15.92 36.67-20.75 29.59-20.75 29.59-19.53 33.25-19.53 33.25-4.15Q33.25-1.9 31.98-1.46L31.98-1.46Q31.25-1.22 29.59-1.22L29.59-1.22 29.59 0 41.65 0Q41.65-1.07 40.92-1.17L40.92-1.17Q40.72-1.22 40.43-1.22ZM66.3 0.49L66.3 0.49Q70.06 0.49 70.45-4.05L70.45-4.05Q70.5-4.35 70.5-4.59L70.5-4.59 69.23-4.64Q68.89-1.07 67.33-1.03L67.33-1.03Q66.06-1.12 66.01-3.56L66.01-3.56 66.01-13.87Q66.01-20.85 59.03-21.24L59.03-21.24Q58.59-21.24 58.15-21.24L58.15-21.24Q52.68-21.24 50.83-18.7L50.83-18.7Q50.24-17.87 50.24-17.04L50.24-17.04Q50.24-15.53 51.66-15.28L51.66-15.28Q51.9-15.23 52.14-15.23L52.14-15.23Q53.27-15.23 53.8-16.65L53.8-16.65Q54.49-18.46 54.73-18.8L54.73-18.8Q55.66-20.02 57.61-20.02L57.61-20.02Q62.2-19.73 62.35-14.99L62.35-14.99 62.35-11.91Q50.87-11.91 49.21-7.13L49.21-7.13Q48.92-6.2 48.92-5.13L48.92-5.13Q48.92-1.42 52.19-0.05L52.19-0.05Q53.51 0.49 54.98 0.49L54.98 0.49Q58.54 0.49 60.98-1.95L60.98-1.95Q61.86-2.88 62.3-3.91L62.3-3.91Q62.89 0.44 66.3 0.49ZM56.59-1.46L56.59-1.46Q53.61-1.46 52.92-4.44L52.92-4.44Q52.78-5.13 52.78-5.96L52.78-5.96Q52.78-9.23 56.54-10.11L56.54-10.11Q58.54-10.55 62.35-10.6L62.35-10.6 62.35-6.69Q61.62-3.32 58.78-1.95L58.78-1.95Q57.66-1.46 56.59-1.46ZM72.7-10.16L72.7-10.16Q72.7-4.25 77.04-1.32L77.04-1.32Q79.73 0.49 83.15 0.49L83.15 0.49Q88.22 0.49 90.81-3.08L90.81-3.08Q91.4-3.91 91.74-4.74L91.74-4.74 90.47-5.18Q88.66-1.32 84.51-0.93L84.51-0.93Q84.12-0.88 83.73-0.88L83.73-0.88Q80.27-0.88 78.31-4.35L78.31-4.35Q76.85-6.98 76.85-10.6L76.85-10.6Q76.85-16.99 80.22-19.14L80.22-19.14Q81.63-20.02 83.34-20.02L83.34-20.02Q85.98-20.02 86.52-17.97L86.52-17.97Q86.61-17.58 86.76-16.75L86.76-16.75Q87.05-14.79 87.83-14.31L87.83-14.31Q88.32-14.06 88.91-14.01L88.91-14.01Q90.57-13.92 91.01-15.38L91.01-15.38Q91.11-15.72 91.11-16.02L91.11-16.02Q91.11-18.51 87.93-20.12L87.93-20.12Q85.69-21.24 83.05-21.24L83.05-21.24Q76.51-21.24 73.92-15.92L73.92-15.92Q72.7-13.38 72.7-10.16ZM103.02-1.22L103.02-1.22 100.82-1.22 100.82-8.45 103.51-10.94 110.39 0 116.88 0Q116.88-1.07 116.15-1.17L116.15-1.17Q115.96-1.22 115.66-1.22L115.66-1.22 113.91-1.22 106.04-13.33 110.63-17.63Q112.34-19.24 113.22-19.43L113.22-19.43Q113.61-19.53 114.1-19.53L114.1-19.53Q115.18-19.53 115.27-20.26L115.27-20.26Q115.32-20.51 115.32-20.75L115.32-20.75 107.02-20.75 107.02-19.53 110.68-19.53 100.82-10.4 100.82-31.74 93.5-31.74 93.5-30.52 97.16-30.52 97.16-4.15Q97.16-1.9 95.89-1.46L95.89-1.46Q95.16-1.22 93.5-1.22L93.5-1.22 93.5 0 104.24 0Q104.24-1.07 103.51-1.17L103.51-1.17Q103.31-1.22 103.02-1.22ZM133.63 0L145.59 0Q145.59-1.07 144.81-1.22L144.81-1.22Q144.57-1.27 144.32-1.27L144.32-1.27 141.68-1.27 141.68-12.16 149.06-26.66Q150.18-27.98 151.69-28.03L151.69-28.03Q152.77-28.03 152.91-28.81L152.91-28.81Q152.96-29.05 152.96-29.3L152.96-29.3 144.27-29.3 144.27-28.03 148.18-28.03 140.76-13.82 132.99-28.03 136.7-28.03 136.7-29.3 125.67-29.3 125.67-28.03 128.35-28.03 137.53-11.67 137.53-1.27 133.63-1.27 133.63 0ZM159.06-10.4L159.06-10.4Q159.06-17.97 163.21-19.63L163.21-19.63Q164.29-20.02 165.46-20.02L165.46-20.02Q170.88-20.02 171.76-13.18L171.76-13.18Q171.91-12.01 171.91-10.6L171.91-10.6Q171.91-2.39 167.41-0.98L167.41-0.98Q166.54-0.73 165.61-0.73L165.61-0.73Q160.68-0.73 159.41-6.59L159.41-6.59Q159.06-8.3 159.06-10.4ZM165.61-21.24L165.61-21.24Q160.92-21.24 157.8-18.02L157.8-18.02Q154.91-15.04 154.91-10.6L154.91-10.6Q154.91-4.44 159.41-1.37L159.41-1.37Q162.14 0.49 165.46 0.49L165.46 0.49Q170.15 0.49 173.22-2.83L173.22-2.83Q176.06-5.86 176.06-10.4L176.06-10.4Q176.06-16.55 171.52-19.53L171.52-19.53Q168.83-21.24 165.61-21.24ZM203.15-1.22L203.15-1.22 200.71-1.22 200.71-20.75 193.05-20.75 193.05-19.53 197.05-19.53 197.05-8.98Q197.05-4.59 193.97-2.54L193.97-2.54Q192.61-1.61 191.14-1.61L191.14-1.61Q187.14-1.61 186.5-5.71L186.5-5.71Q186.41-6.4 186.41-7.18L186.41-7.18 186.41-20.75 178.98-20.75 178.98-19.53 182.74-19.53 182.74-7.91Q182.79 0.44 189.73 0.49L189.73 0.49Q193.39 0.49 195.73-2.49L195.73-2.49Q196.61-3.61 197.15-4.98L197.15-4.98 197.49 0 204.37 0Q204.37-1.07 203.64-1.17L203.64-1.17Q203.45-1.22 203.15-1.22ZM218.09-1.22L218.09-1.22 214.58-1.22 214.58-10.94Q214.58-15.38 217.31-18.07L217.31-18.07Q218.39-19.09 219.12-19.14L219.12-19.14Q219.95-19.14 220.63-17.92L220.63-17.92Q221.41-16.55 222.1-16.36L222.1-16.36Q222.39-16.26 222.68-16.26L222.68-16.26Q224.15-16.26 224.54-17.68L224.54-17.68Q224.64-17.97 224.64-18.26L224.64-18.26Q224.64-20.46 222.39-20.95L222.39-20.95Q221.9-21.04 221.46-21.04L221.46-21.04Q218.53-21.04 216.24-18.55L216.24-18.55Q215.16-17.38 214.53-15.92L214.53-15.92 214.33-20.75 207.25-20.75 207.25-19.53 210.92-19.53 210.92-4.15Q210.92-1.9 209.65-1.46L209.65-1.46Q208.91-1.22 207.25-1.22L207.25-1.22 207.25 0 219.31 0Q219.31-1.07 218.58-1.17L218.58-1.17Q218.39-1.22 218.09-1.22ZM244.45-28.03L249.78-28.03Q254.12-28.03 255.39-24.12L255.39-24.12Q255.78-22.85 255.78-21.39L255.78-21.39Q255.78-15.04 250.12-14.4L250.12-14.4Q249.53-14.36 248.95-14.36L248.95-14.36 244.45-14.36 244.45-28.03ZM236.35 0L249.34 0Q249.34-1.07 248.56-1.22L248.56-1.22Q248.31-1.27 248.07-1.27L248.07-1.27 244.45-1.27 244.45-12.94 248.75-12.94Q256.76-12.94 259.35-17.48L259.35-17.48Q260.37-19.19 260.37-21.44L260.37-21.44Q260.37-26.27 256.17-28.22L256.17-28.22Q253.93-29.3 250.8-29.3L250.8-29.3 236.35-29.3 236.35-28.03 240.26-28.03 240.26-1.27 236.35-1.27 236.35 0ZM274.24-1.22L274.24-1.22 270.72-1.22 270.72-10.94Q270.72-15.38 273.46-18.07L273.46-18.07Q274.53-19.09 275.26-19.14L275.26-19.14Q276.09-19.14 276.78-17.92L276.78-17.92Q277.56-16.55 278.24-16.36L278.24-16.36Q278.53-16.26 278.83-16.26L278.83-16.26Q280.29-16.26 280.68-17.68L280.68-17.68Q280.78-17.97 280.78-18.26L280.78-18.26Q280.78-20.46 278.53-20.95L278.53-20.95Q278.05-21.04 277.61-21.04L277.61-21.04Q274.68-21.04 272.38-18.55L272.38-18.55Q271.31-17.38 270.67-15.92L270.67-15.92 270.48-20.75 263.4-20.75 263.4-19.53 267.06-19.53 267.06-4.15Q267.06-1.9 265.79-1.46L265.79-1.46Q265.06-1.22 263.4-1.22L263.4-1.22 263.4 0 275.46 0Q275.46-1.07 274.73-1.17L274.73-1.17Q274.53-1.22 274.24-1.22ZM287.13-10.4L287.13-10.4Q287.13-17.97 291.28-19.63L291.28-19.63Q292.35-20.02 293.52-20.02L293.52-20.02Q298.94-20.02 299.82-13.18L299.82-13.18Q299.97-12.01 299.97-10.6L299.97-10.6Q299.97-2.39 295.48-0.98L295.48-0.98Q294.6-0.73 293.67-0.73L293.67-0.73Q288.74-0.73 287.47-6.59L287.47-6.59Q287.13-8.3 287.13-10.4ZM293.67-21.24L293.67-21.24Q288.98-21.24 285.86-18.02L285.86-18.02Q282.98-15.04 282.98-10.6L282.98-10.6Q282.98-4.44 287.47-1.37L287.47-1.37Q290.2 0.49 293.52 0.49L293.52 0.49Q298.21 0.49 301.29-2.83L301.29-2.83Q304.12-5.86 304.12-10.4L304.12-10.4Q304.12-16.55 299.58-19.53L299.58-19.53Q296.89-21.24 293.67-21.24ZM312.42-13.53L312.42-13.53Q312.51-19.97 317.3-20.02L317.3-20.02Q322.08-19.92 322.13-13.53L322.13-13.53Q322.04-6.88 317.3-6.84L317.3-6.84Q312.47-6.93 312.42-13.53ZM317.35-21.24L317.35-21.24Q312.95-21.24 310.37-18.41L310.37-18.41Q308.51-16.31 308.51-13.48L308.51-13.48Q308.51-9.77 312.12-7.32L312.12-7.32Q312.47-7.08 312.81-6.88L312.81-6.88Q309.68-6.88 308.9-4.2L308.9-4.2Q308.75-3.56 308.75-2.93L308.75-2.93Q308.8-0.34 310.85 0.93L310.85 0.93Q309.24 2.64 309.24 4.39L309.24 4.39Q309.24 7.08 312.42 8.4L312.42 8.4Q314.42 9.28 317.35 9.28L317.35 9.28Q324.77 9.28 327.16 5.66L327.16 5.66Q327.94 4.44 327.94 3.08L327.94 3.08Q327.94-1.12 323.11-1.76L323.11-1.76Q322.47-1.86 321.79-1.86L321.79-1.86 312.9-2.05Q310.66-2.2 310.61-4L310.61-4Q310.61-5.27 312.22-5.62L312.22-5.62Q312.56-5.66 312.95-5.66L312.95-5.66 317.25-5.62Q321.6-5.62 324.18-8.54L324.18-8.54Q326.04-10.64 326.04-13.53L326.04-13.53Q325.99-17.19 323.21-19.38L323.21-19.38Q323.65-20.95 324.87-21.24L324.87-21.24Q325.06-21.29 325.26-21.29L325.26-21.29Q325.94-21.29 326.72-20.56L326.72-20.56Q327.26-20.07 327.7-20.07L327.7-20.07Q328.92-20.36 329.12-21.63L329.12-21.63Q329.12-23.14 327.7-23.68L327.7-23.68Q327.16-23.88 326.63-23.88L326.63-23.88Q324.33-23.88 322.91-21.83L322.91-21.83Q322.38-21.04 322.08-20.12L322.08-20.12Q319.89-21.24 317.35-21.24ZM317.35 8.01L317.35 8.01Q312.51 8.01 311.24 5.47L311.24 5.47Q310.9 4.79 310.9 4.1L310.9 4.1Q310.95 2.78 312.07 1.46L312.07 1.46Q313.05 1.66 313.69 1.66L313.69 1.66 321.21 1.76Q324.87 1.81 325.45 3.42L325.45 3.42Q325.6 3.81 325.6 4.39L325.6 4.39Q325.6 6.54 321.6 7.52L321.6 7.52Q319.64 8.01 317.35 8.01ZM341.95-1.22L341.95-1.22 338.44-1.22 338.44-10.94Q338.44-15.38 341.17-18.07L341.17-18.07Q342.25-19.09 342.98-19.14L342.98-19.14Q343.81-19.14 344.49-17.92L344.49-17.92Q345.28-16.55 345.96-16.36L345.96-16.36Q346.25-16.26 346.54-16.26L346.54-16.26Q348.01-16.26 348.4-17.68L348.4-17.68Q348.5-17.97 348.5-18.26L348.5-18.26Q348.5-20.46 346.25-20.95L346.25-20.95Q345.76-21.04 345.32-21.04L345.32-21.04Q342.39-21.04 340.1-18.55L340.1-18.55Q339.03-17.38 338.39-15.92L338.39-15.92 338.19-20.75 331.11-20.75 331.11-19.53 334.78-19.53 334.78-4.15Q334.78-1.9 333.51-1.46L333.51-1.46Q332.78-1.22 331.11-1.22L331.11-1.22 331.11 0 343.18 0Q343.18-1.07 342.44-1.17L342.44-1.17Q342.25-1.22 341.95-1.22ZM360.9-20.02L360.9-20.02Q364.32-20.02 365.44-17.14L365.44-17.14Q365.83-16.21 365.83-15.14L365.83-15.14Q365.83-12.7 363.49-12.16L363.49-12.16Q362.26-11.91 360.02-11.96L360.02-11.96 354.84-12.11Q355.09-17.72 358.5-19.43L358.5-19.43Q359.63-20.02 360.9-20.02ZM369.39-4.69L369.39-4.69 368.17-5.13Q366.46-1.42 362.66-0.93L362.66-0.93Q362.17-0.88 361.73-0.88L361.73-0.88Q356.6-0.88 355.28-6.98L355.28-6.98Q354.89-8.69 354.84-10.74L354.84-10.74 360.7-10.64Q366.66-10.55 368.37-11.77L368.37-11.77Q369.69-12.74 369.69-14.55L369.69-14.55Q369.69-17.87 366.32-19.82L366.32-19.82Q363.92-21.24 360.8-21.24L360.8-21.24Q354.7-21.24 352.06-16.16L352.06-16.16Q350.69-13.53 350.69-10.21L350.69-10.21Q350.69-4.15 355.04-1.22L355.04-1.22Q357.63 0.49 360.95 0.49L360.95 0.49Q366.22 0.49 368.71-3.32L368.71-3.32Q369.1-4 369.39-4.69ZM380.67-0.83L380.67-0.83Q384.04-0.83 385.21-2.88L385.21-2.88Q385.65-3.61 385.65-4.49L385.65-4.49Q385.65-6.54 382.67-8.01L382.67-8.01Q382.04-8.35 380.57-8.98L380.57-8.98Q376.57-10.64 375.25-12.11L375.25-12.11Q373.83-13.72 373.83-15.87L373.83-15.87Q373.83-19.24 377.55-20.61L377.55-20.61Q379.25-21.24 381.26-21.24L381.26-21.24Q384.48-21.24 386.82-19.87L386.82-19.87Q386.82-21.29 387.51-21.48L387.51-21.48Q387.8-21.53 388.14-21.53L388.14-21.53 388.14-15.43 386.87-15.43Q386.77-19.92 381.89-19.97L381.89-19.97Q378.23-19.97 377.35-17.82L377.35-17.82Q377.11-17.24 377.11-16.6L377.11-16.6Q377.11-14.5 380.13-13.04L380.13-13.04Q380.82-12.7 382.28-12.11L382.28-12.11Q386.24-10.5 387.56-9.03L387.56-9.03Q388.97-7.47 388.97-5.32L388.97-5.32Q388.97-1.37 384.77-0.05L384.77-0.05Q383.16 0.49 381.26 0.49L381.26 0.49Q377.74 0.44 375.15-1.27L375.15-1.27Q375.15 0 374.52 0.2L374.52 0.2Q374.23 0.24 373.83 0.24L373.83 0.24 373.83-7.18 375.2-7.18Q375.3-0.88 380.67-0.83ZM400.2-0.83L400.2-0.83Q403.57-0.83 404.74-2.88L404.74-2.88Q405.18-3.61 405.18-4.49L405.18-4.49Q405.18-6.54 402.2-8.01L402.2-8.01Q401.57-8.35 400.1-8.98L400.1-8.98Q396.1-10.64 394.78-12.11L394.78-12.11Q393.36-13.72 393.36-15.87L393.36-15.87Q393.36-19.24 397.07-20.61L397.07-20.61Q398.78-21.24 400.79-21.24L400.79-21.24Q404.01-21.24 406.35-19.87L406.35-19.87Q406.35-21.29 407.04-21.48L407.04-21.48Q407.33-21.53 407.67-21.53L407.67-21.53 407.67-15.43 406.4-15.43Q406.3-19.92 401.42-19.97L401.42-19.97Q397.76-19.97 396.88-17.82L396.88-17.82Q396.63-17.24 396.63-16.6L396.63-16.6Q396.63-14.5 399.66-13.04L399.66-13.04Q400.35-12.7 401.81-12.11L401.81-12.11Q405.77-10.5 407.08-9.03L407.08-9.03Q408.5-7.47 408.5-5.32L408.5-5.32Q408.5-1.37 404.3-0.05L404.3-0.05Q402.69 0.49 400.79 0.49L400.79 0.49Q397.27 0.44 394.68-1.27L394.68-1.27Q394.68 0 394.05 0.2L394.05 0.2Q393.75 0.24 393.36 0.24L393.36 0.24 393.36-7.18 394.73-7.18Q394.83-0.88 400.2-0.83Z" opacity="1" transform="matrix(1,0,0,1,0,0)" fill="#00d1cd" class="slogan-text-1" data-fill-palette-color="secondary" id="text-1"></path></svg></g></svg></g></svg></g></svg></g><g transform="matrix(1,0,0,1,414.17436173703163,0)"><svg viewBox="0 0 187.33545794352253 187.33545794352253" height="187.33545794352253" width="187.33545794352253"><g data-palette-color="#00d1cd"><rect width="51.205025171229494" height="187.33545794352253" fill="#00d1cd" stroke="transparent" data-fill-palette-color="accent" x="0" fill-opacity="1"></rect><rect width="51.205025171229494" height="187.33545794352253" fill="#00d1cd" stroke="transparent" data-fill-palette-color="accent" x="62.44515264784084" fill-opacity="0.75"></rect><rect width="51.205025171229494" height="187.33545794352253" fill="#00d1cd" stroke="transparent" data-fill-palette-color="accent" x="124.89030529568169" fill-opacity="0.5"></rect></g></svg></g></svg></g><defs></defs></svg><rect width="395.52" height="123.18156396045518" fill="none" stroke="none" visibility="hidden"></rect></g></svg></g></svg>